<svg xmlns="http://www.w3.org/2000/svg" viewBox="0 0 24 24" fill="#61DAFB">
  <path d="M12.584 15.891c-.878 0-1.353-.438-1.353-1.262v-.824c0-.824.475-1.262 1.353-1.262s1.353.438 1.353 1.262v.824c0 .824-.475 1.262-1.353 1.262zm-1.353-2.086v.824c0 .824.475 1.262 1.353 1.262s1.353-.438 1.353-1.262v-.824c0-.824-.475-1.262-1.353-1.262s-1.353.438-1.353 1.262zm1.353 1.262c-.878 0-1.353-.438-1.353-1.262v-.824c0-.824.475-1.262 1.353-1.262s1.353.438 1.353 1.262v.824c0 .824-.475 1.262-1.353 1.262zm-1.353-2.086v.824c0 .824.475 1.262 1.353 1.262s1.353-.438 1.353-1.262v-.824c0-.824-.475-1.262-1.353-1.262s-1.353.438-1.353 1.262zm1.353 1.262c-.878 0-1.353-.438-1.353-1.262v-.824c0-.824.475-1.262 1.353-1.262s1.353.438 1.353 1.262v.824c0 .824-.475 1.262-1.353 1.262z"/>
  <path d="M12 2C6.477 2 2 6.477 2 12s4.477 10 10 10 10-4.477 10-10S17.523 2 12 2zm0 18c-4.418 0-8-3.582-8-8s3.582-8 8-8 8 3.582 8 8-3.582 8-8 8z"/>
  <circle cx="12" cy="12" r="3"/>
</svg>
